<svg width="20" height="20" viewBox="0 0 20 20" fill="none" xmlns="http://www.w3.org/2000/svg">
<g clip-path="url(#clip0_2059_395)">
<path d="M5.4165 10.8337L6.07022 12.1411C6.29146 12.5836 6.40208 12.8048 6.54986 12.9965C6.681 13.1667 6.83351 13.3192 7.00363 13.4503C7.19535 13.5981 7.41659 13.7087 7.85907 13.9299L9.1665 14.5837L7.85907 15.2374C7.41659 15.4586 7.19535 15.5692 7.00363 15.717C6.83351 15.8482 6.681 16.0007 6.54986 16.1708C6.40208 16.3625 6.29146 16.5837 6.07022 17.0262L5.4165 18.3337L4.76279 17.0262C4.54155 16.5837 4.43093 16.3625 4.28315 16.1708C4.15201 16.0007 3.9995 15.8482 3.82938 15.717C3.63766 15.5692 3.41642 15.4586 2.97393 15.2374L1.6665 14.5837L2.97393 13.9299C3.41642 13.7087 3.63766 13.5981 3.82938 13.4503C3.9995 13.3192 4.15201 13.1667 4.28315 12.9965C4.43093 12.8048 4.54155 12.5836 4.76279 12.1411L5.4165 10.8337Z" stroke="black" stroke-width="1.66667" stroke-linecap="round" stroke-linejoin="round"/>
<path d="M12.4998 1.66699L13.482 4.22067C13.717 4.8317 13.8345 5.13721 14.0173 5.39419C14.1792 5.62195 14.3782 5.82095 14.606 5.9829C14.863 6.16563 15.1685 6.28313 15.7795 6.51814L18.3332 7.50033L15.7795 8.48251C15.1685 8.71752 14.863 8.83503 14.606 9.01775C14.3782 9.1797 14.1792 9.3787 14.0173 9.60646C13.8345 9.86344 13.717 10.169 13.482 10.78L12.4998 13.3337L11.5177 10.78C11.2826 10.169 11.1651 9.86344 10.9824 9.60646C10.8205 9.3787 10.6215 9.1797 10.3937 9.01775C10.1367 8.83503 9.83121 8.71752 9.22019 8.48251L6.6665 7.50033L9.22019 6.51814C9.83121 6.28313 10.1367 6.16563 10.3937 5.9829C10.6215 5.82095 10.8205 5.62195 10.9824 5.39419C11.1651 5.13721 11.2826 4.8317 11.5177 4.22067L12.4998 1.66699Z" stroke="black" stroke-width="1.66667" stroke-linecap="round" stroke-linejoin="round"/>
</g>
<defs>
<clipPath id="clip0_2059_395">
<rect width="20" height="20" fill="white"/>
</clipPath>
</defs>
</svg>
